<mxfile host="65bd71144e">
    <diagram id="zQV0w05fmvOncsrRLOJS" name="第1頁">
        <mxGraphModel dx="610" dy="594" grid="1" gridSize="10" guides="1" tooltips="1" connect="1" arrows="1" fold="1" page="1" pageScale="1" pageWidth="827" pageHeight="1169" math="0" shadow="0">
            <root>
                <mxCell id="0"/>
                <mxCell id="1" parent="0"/>
                <mxCell id="145" value="修改付款" style="shape=umlFrame;whiteSpace=wrap;html=1;width=120;height=30;boundedLbl=1;verticalAlign=middle;align=left;spacingLeft=5;" parent="1" vertex="1">
                    <mxGeometry x="140" y="2593" width="620" height="347" as="geometry"/>
                </mxCell>
                <mxCell id="138" value="新增付款" style="shape=umlFrame;whiteSpace=wrap;html=1;width=120;height=30;boundedLbl=1;verticalAlign=middle;align=left;spacingLeft=5;" parent="1" vertex="1">
                    <mxGeometry x="140" y="2240" width="620" height="330" as="geometry"/>
                </mxCell>
                <mxCell id="118" value="修改購物車" style="shape=umlFrame;whiteSpace=wrap;html=1;width=120;height=30;boundedLbl=1;verticalAlign=middle;align=left;spacingLeft=5;" parent="1" vertex="1">
                    <mxGeometry x="140" y="1880" width="620" height="330" as="geometry"/>
                </mxCell>
                <mxCell id="84" value="新增購物車" style="shape=umlFrame;whiteSpace=wrap;html=1;width=120;height=30;boundedLbl=1;verticalAlign=middle;align=left;spacingLeft=5;" parent="1" vertex="1">
                    <mxGeometry x="140" y="1550" width="620" height="300" as="geometry"/>
                </mxCell>
                <mxCell id="81" value="修改訂單" style="shape=umlFrame;whiteSpace=wrap;html=1;width=120;height=30;boundedLbl=1;verticalAlign=middle;align=left;spacingLeft=5;" parent="1" vertex="1">
                    <mxGeometry x="140" y="1230" width="620" height="300" as="geometry"/>
                </mxCell>
                <mxCell id="78" value="新增訂單" style="shape=umlFrame;whiteSpace=wrap;html=1;width=120;height=30;boundedLbl=1;verticalAlign=middle;align=left;spacingLeft=5;" parent="1" vertex="1">
                    <mxGeometry x="140" y="920" width="620" height="300" as="geometry"/>
                </mxCell>
                <mxCell id="69" value="修改" style="shape=umlFrame;whiteSpace=wrap;html=1;width=120;height=30;boundedLbl=1;verticalAlign=middle;align=left;spacingLeft=5;" parent="1" vertex="1">
                    <mxGeometry x="140" y="610" width="620" height="300" as="geometry"/>
                </mxCell>
                <mxCell id="42" value="新增" style="shape=umlFrame;whiteSpace=wrap;html=1;width=120;height=30;boundedLbl=1;verticalAlign=middle;align=left;spacingLeft=5;" parent="1" vertex="1">
                    <mxGeometry x="140" y="285" width="620" height="300" as="geometry"/>
                </mxCell>
                <mxCell id="4" value="&lt;span style=&quot;font-size: 29px;&quot;&gt;APP&lt;/span&gt;" style="rounded=0;whiteSpace=wrap;html=1;fillColor=#0050ef;fontColor=#ffffff;strokeColor=#001DBC;" parent="1" vertex="1">
                    <mxGeometry x="530" y="190" width="120" height="60" as="geometry"/>
                </mxCell>
                <mxCell id="12" value="" style="endArrow=none;dashed=1;html=1;" parent="1" edge="1">
                    <mxGeometry width="50" height="50" relative="1" as="geometry">
                        <mxPoint x="420" y="3000" as="sourcePoint"/>
                        <mxPoint x="420" y="250" as="targetPoint"/>
                    </mxGeometry>
                </mxCell>
                <mxCell id="13" value="" style="endArrow=none;dashed=1;html=1;startArrow=none;" parent="1" source="19" edge="1">
                    <mxGeometry width="50" height="50" relative="1" as="geometry">
                        <mxPoint x="589.4099999999997" y="850" as="sourcePoint"/>
                        <mxPoint x="589.4099999999997" y="250" as="targetPoint"/>
                    </mxGeometry>
                </mxCell>
                <mxCell id="15" value="" style="endArrow=classic;html=1;startArrow=none;" parent="1" source="18" edge="1">
                    <mxGeometry width="50" height="50" relative="1" as="geometry">
                        <mxPoint x="267.5" y="330" as="sourcePoint"/>
                        <mxPoint x="580" y="330" as="targetPoint"/>
                    </mxGeometry>
                </mxCell>
                <mxCell id="17" value="" style="endArrow=none;html=1;" parent="1" target="18" edge="1">
                    <mxGeometry width="50" height="50" relative="1" as="geometry">
                        <mxPoint x="267.4999999999998" y="330" as="sourcePoint"/>
                        <mxPoint x="587.4999999999998" y="330" as="targetPoint"/>
                    </mxGeometry>
                </mxCell>
                <mxCell id="18" value="&amp;lt;發佈菜單&amp;gt;" style="text;html=1;strokeColor=none;fillColor=none;align=center;verticalAlign=middle;whiteSpace=wrap;rounded=0;" parent="1" vertex="1">
                    <mxGeometry x="460" y="315" width="70" height="30" as="geometry"/>
                </mxCell>
                <mxCell id="20" value="" style="endArrow=none;dashed=1;html=1;startArrow=none;" parent="1" source="79" target="19" edge="1">
                    <mxGeometry width="50" height="50" relative="1" as="geometry">
                        <mxPoint x="600" y="1622.857142857143" as="sourcePoint"/>
                        <mxPoint x="589.4099999999999" y="250" as="targetPoint"/>
                    </mxGeometry>
                </mxCell>
                <mxCell id="19" value="" style="rounded=0;whiteSpace=wrap;html=1;fontSize=29;fillColor=#1ba1e2;fontColor=#ffffff;strokeColor=#006EAF;" parent="1" vertex="1">
                    <mxGeometry x="582.5" y="315" width="15" height="100" as="geometry"/>
                </mxCell>
                <mxCell id="21" value="" style="endArrow=none;dashed=1;html=1;" parent="1" edge="1">
                    <mxGeometry width="50" height="50" relative="1" as="geometry">
                        <mxPoint x="260" y="3000" as="sourcePoint"/>
                        <mxPoint x="264.4999999999998" y="250" as="targetPoint"/>
                    </mxGeometry>
                </mxCell>
                <mxCell id="22" value="committee" style="shape=umlActor;verticalLabelPosition=bottom;verticalAlign=top;html=1;outlineConnect=0;" parent="1" vertex="1">
                    <mxGeometry x="250" y="180" width="30" height="60" as="geometry"/>
                </mxCell>
                <mxCell id="23" value="tenant" style="shape=umlActor;verticalLabelPosition=bottom;verticalAlign=top;html=1;outlineConnect=0;" parent="1" vertex="1">
                    <mxGeometry x="400" y="180" width="30" height="60" as="geometry"/>
                </mxCell>
                <mxCell id="47" value="" style="endArrow=block;startArrow=none;endFill=0;startFill=0;endSize=8;html=1;verticalAlign=bottom;dashed=1;labelBackgroundColor=none;" parent="1" source="48" edge="1">
                    <mxGeometry width="160" relative="1" as="geometry">
                        <mxPoint x="580" y="410" as="sourcePoint"/>
                        <mxPoint x="270" y="410" as="targetPoint"/>
                    </mxGeometry>
                </mxCell>
                <mxCell id="49" value="" style="endArrow=none;startArrow=none;endFill=0;startFill=0;endSize=8;html=1;verticalAlign=bottom;dashed=1;labelBackgroundColor=none;" parent="1" target="48" edge="1">
                    <mxGeometry width="160" relative="1" as="geometry">
                        <mxPoint x="580" y="410" as="sourcePoint"/>
                        <mxPoint x="270" y="410" as="targetPoint"/>
                    </mxGeometry>
                </mxCell>
                <mxCell id="48" value="&amp;lt;發佈成功/失敗通知&amp;gt;" style="text;html=1;strokeColor=none;fillColor=none;align=center;verticalAlign=middle;whiteSpace=wrap;rounded=0;" parent="1" vertex="1">
                    <mxGeometry x="290" y="396" width="120" height="30" as="geometry"/>
                </mxCell>
                <mxCell id="53" value="" style="endArrow=open;startArrow=none;endFill=0;startFill=0;endSize=8;html=1;verticalAlign=bottom;labelBackgroundColor=none;strokeWidth=1;" parent="1" source="54" edge="1">
                    <mxGeometry width="160" relative="1" as="geometry">
                        <mxPoint x="270" y="646" as="sourcePoint"/>
                        <mxPoint x="580" y="646" as="targetPoint"/>
                    </mxGeometry>
                </mxCell>
                <mxCell id="55" value="" style="rounded=0;whiteSpace=wrap;html=1;fontSize=29;fillColor=#1ba1e2;fontColor=#ffffff;strokeColor=#006EAF;" parent="1" vertex="1">
                    <mxGeometry x="582.5" y="638" width="15" height="100" as="geometry"/>
                </mxCell>
                <mxCell id="56" value="" style="endArrow=none;startArrow=none;endFill=0;startFill=0;endSize=8;html=1;verticalAlign=bottom;labelBackgroundColor=none;strokeWidth=1;" parent="1" target="54" edge="1">
                    <mxGeometry width="160" relative="1" as="geometry">
                        <mxPoint x="270" y="646" as="sourcePoint"/>
                        <mxPoint x="580" y="646" as="targetPoint"/>
                    </mxGeometry>
                </mxCell>
                <mxCell id="54" value="&amp;lt;Modification Announcement&amp;gt;" style="text;html=1;strokeColor=none;fillColor=none;align=center;verticalAlign=middle;whiteSpace=wrap;rounded=0;" parent="1" vertex="1">
                    <mxGeometry x="450" y="631" width="87" height="29" as="geometry"/>
                </mxCell>
                <mxCell id="57" value="" style="endArrow=block;startArrow=none;endFill=0;startFill=0;endSize=8;html=1;verticalAlign=bottom;dashed=1;labelBackgroundColor=none;" parent="1" source="58" edge="1">
                    <mxGeometry width="160" relative="1" as="geometry">
                        <mxPoint x="580" y="730" as="sourcePoint"/>
                        <mxPoint x="270" y="730" as="targetPoint"/>
                    </mxGeometry>
                </mxCell>
                <mxCell id="59" value="" style="endArrow=none;startArrow=none;endFill=0;startFill=0;endSize=8;html=1;verticalAlign=bottom;dashed=1;labelBackgroundColor=none;" parent="1" target="58" edge="1">
                    <mxGeometry width="160" relative="1" as="geometry">
                        <mxPoint x="580" y="730" as="sourcePoint"/>
                        <mxPoint x="270" y="730" as="targetPoint"/>
                    </mxGeometry>
                </mxCell>
                <mxCell id="58" value="&amp;lt;Modification success/failure notification&amp;gt;" style="text;html=1;strokeColor=none;fillColor=none;align=center;verticalAlign=middle;whiteSpace=wrap;rounded=0;" parent="1" vertex="1">
                    <mxGeometry x="289" y="715" width="140" height="35" as="geometry"/>
                </mxCell>
                <mxCell id="62" value="" style="endArrow=open;startArrow=none;endFill=0;startFill=0;endSize=8;html=1;verticalAlign=bottom;labelBackgroundColor=none;strokeWidth=1;" parent="1" source="65" edge="1">
                    <mxGeometry width="160" relative="1" as="geometry">
                        <mxPoint x="269" y="780" as="sourcePoint"/>
                        <mxPoint x="579" y="780" as="targetPoint"/>
                    </mxGeometry>
                </mxCell>
                <mxCell id="63" value="" style="rounded=0;whiteSpace=wrap;html=1;fontSize=29;fillColor=#1ba1e2;fontColor=#ffffff;strokeColor=#006EAF;" parent="1" vertex="1">
                    <mxGeometry x="582.5" y="772" width="15" height="100" as="geometry"/>
                </mxCell>
                <mxCell id="64" value="" style="endArrow=none;startArrow=none;endFill=0;startFill=0;endSize=8;html=1;verticalAlign=bottom;labelBackgroundColor=none;strokeWidth=1;" parent="1" target="65" edge="1">
                    <mxGeometry width="160" relative="1" as="geometry">
                        <mxPoint x="269" y="780" as="sourcePoint"/>
                        <mxPoint x="579" y="780" as="targetPoint"/>
                    </mxGeometry>
                </mxCell>
                <mxCell id="65" value="&amp;lt;Removal Notice&amp;gt;" style="text;html=1;strokeColor=none;fillColor=none;align=center;verticalAlign=middle;whiteSpace=wrap;rounded=0;" parent="1" vertex="1">
                    <mxGeometry x="450" y="765" width="86" height="30" as="geometry"/>
                </mxCell>
                <mxCell id="66" value="" style="endArrow=block;startArrow=none;endFill=0;startFill=0;endSize=8;html=1;verticalAlign=bottom;dashed=1;labelBackgroundColor=none;" parent="1" source="68" edge="1">
                    <mxGeometry width="160" relative="1" as="geometry">
                        <mxPoint x="579" y="864" as="sourcePoint"/>
                        <mxPoint x="269" y="864" as="targetPoint"/>
                    </mxGeometry>
                </mxCell>
                <mxCell id="67" value="" style="endArrow=none;startArrow=none;endFill=0;startFill=0;endSize=8;html=1;verticalAlign=bottom;dashed=1;labelBackgroundColor=none;" parent="1" target="68" edge="1">
                    <mxGeometry width="160" relative="1" as="geometry">
                        <mxPoint x="579" y="864" as="sourcePoint"/>
                        <mxPoint x="269" y="864" as="targetPoint"/>
                    </mxGeometry>
                </mxCell>
                <mxCell id="68" value="&amp;lt;Delete success/failure notification&amp;gt;" style="text;html=1;strokeColor=none;fillColor=none;align=center;verticalAlign=middle;whiteSpace=wrap;rounded=0;" parent="1" vertex="1">
                    <mxGeometry x="270" y="849" width="149" height="30" as="geometry"/>
                </mxCell>
                <mxCell id="71" value="" style="endArrow=open;html=1;endFill=0;" parent="1" edge="1">
                    <mxGeometry width="50" height="50" relative="1" as="geometry">
                        <mxPoint x="420" y="960" as="sourcePoint"/>
                        <mxPoint x="580" y="960" as="targetPoint"/>
                    </mxGeometry>
                </mxCell>
                <mxCell id="73" value="&amp;lt;新增訂單&amp;gt;" style="edgeLabel;html=1;align=center;verticalAlign=middle;resizable=0;points=[];" parent="71" vertex="1" connectable="0">
                    <mxGeometry x="0.4975" relative="1" as="geometry">
                        <mxPoint x="-45" y="-11" as="offset"/>
                    </mxGeometry>
                </mxCell>
                <mxCell id="74" value="" style="endArrow=classic;dashed=1;html=1;dashPattern=1 3;strokeWidth=1;endFill=0;" parent="1" edge="1">
                    <mxGeometry width="50" height="50" relative="1" as="geometry">
                        <mxPoint x="580" y="1030" as="sourcePoint"/>
                        <mxPoint x="420" y="1030" as="targetPoint"/>
                    </mxGeometry>
                </mxCell>
                <mxCell id="77" value="&amp;lt;新增成功/失敗通知&amp;gt;" style="edgeLabel;html=1;align=center;verticalAlign=middle;resizable=0;points=[];" parent="74" vertex="1" connectable="0">
                    <mxGeometry x="0.1444" y="-2" relative="1" as="geometry">
                        <mxPoint x="22" y="-12" as="offset"/>
                    </mxGeometry>
                </mxCell>
                <mxCell id="80" value="" style="endArrow=none;dashed=1;html=1;startArrow=none;" parent="1" source="89" target="79" edge="1">
                    <mxGeometry width="50" height="50" relative="1" as="geometry">
                        <mxPoint x="600" y="2112.5" as="sourcePoint"/>
                        <mxPoint x="590.3975014196478" y="415" as="targetPoint"/>
                        <Array as="points"/>
                    </mxGeometry>
                </mxCell>
                <mxCell id="79" value="" style="rounded=0;whiteSpace=wrap;html=1;fontSize=29;fillColor=#1ba1e2;fontColor=#ffffff;strokeColor=#006EAF;" parent="1" vertex="1">
                    <mxGeometry x="582.5" y="940" width="15" height="100" as="geometry"/>
                </mxCell>
                <mxCell id="82" value="" style="endArrow=open;html=1;endFill=0;entryX=0;entryY=0.4;entryDx=0;entryDy=0;entryPerimeter=0;" parent="1" target="89" edge="1">
                    <mxGeometry width="50" height="50" relative="1" as="geometry">
                        <mxPoint x="419" y="1280" as="sourcePoint"/>
                        <mxPoint x="570" y="1280" as="targetPoint"/>
                        <Array as="points">
                            <mxPoint x="540" y="1280"/>
                        </Array>
                    </mxGeometry>
                </mxCell>
                <mxCell id="83" value="&amp;lt;修改訂單&amp;gt;" style="edgeLabel;html=1;align=center;verticalAlign=middle;resizable=0;points=[];" parent="82" vertex="1" connectable="0">
                    <mxGeometry x="0.4975" relative="1" as="geometry">
                        <mxPoint x="-45" y="-10" as="offset"/>
                    </mxGeometry>
                </mxCell>
                <mxCell id="86" value="" style="endArrow=classic;dashed=1;html=1;dashPattern=1 3;strokeWidth=1;jumpSize=6;endFill=0;" parent="1" edge="1">
                    <mxGeometry width="50" height="50" relative="1" as="geometry">
                        <mxPoint x="590" y="1339.5" as="sourcePoint"/>
                        <mxPoint x="420" y="1339.5" as="targetPoint"/>
                    </mxGeometry>
                </mxCell>
                <mxCell id="87" value="&amp;lt;修改成功/失敗通知&amp;gt;" style="edgeLabel;html=1;align=center;verticalAlign=middle;resizable=0;points=[];" parent="86" vertex="1" connectable="0">
                    <mxGeometry x="0.1444" y="-2" relative="1" as="geometry">
                        <mxPoint x="18" y="-12" as="offset"/>
                    </mxGeometry>
                </mxCell>
                <mxCell id="90" value="" style="endArrow=none;dashed=1;html=1;startArrow=none;" parent="1" source="112" target="89" edge="1">
                    <mxGeometry width="50" height="50" relative="1" as="geometry">
                        <mxPoint x="600" y="2150" as="sourcePoint"/>
                        <mxPoint x="591.219512195122" y="1040" as="targetPoint"/>
                        <Array as="points"/>
                    </mxGeometry>
                </mxCell>
                <mxCell id="89" value="" style="rounded=0;whiteSpace=wrap;html=1;fontSize=29;fillColor=#1ba1e2;fontColor=#ffffff;strokeColor=#006EAF;" parent="1" vertex="1">
                    <mxGeometry x="590" y="1240" width="15" height="100" as="geometry"/>
                </mxCell>
                <mxCell id="91" value="" style="endArrow=open;html=1;endFill=0;entryX=0.089;entryY=0.188;entryDx=0;entryDy=0;entryPerimeter=0;" parent="1" edge="1">
                    <mxGeometry width="50" height="50" relative="1" as="geometry">
                        <mxPoint x="419" y="1621.2000000000003" as="sourcePoint"/>
                        <mxPoint x="590.835" y="1620.0000000000002" as="targetPoint"/>
                        <Array as="points">
                            <mxPoint x="540" y="1621.2"/>
                        </Array>
                    </mxGeometry>
                </mxCell>
                <mxCell id="92" value="&amp;lt;新增購物車&amp;gt;" style="edgeLabel;html=1;align=center;verticalAlign=middle;resizable=0;points=[];" parent="91" vertex="1" connectable="0">
                    <mxGeometry x="0.4975" relative="1" as="geometry">
                        <mxPoint x="-45" y="-10" as="offset"/>
                    </mxGeometry>
                </mxCell>
                <mxCell id="93" value="" style="endArrow=classic;dashed=1;html=1;dashPattern=1 3;strokeWidth=1;jumpSize=6;endFill=0;" parent="1" edge="1">
                    <mxGeometry width="50" height="50" relative="1" as="geometry">
                        <mxPoint x="589" y="1690.0000000000002" as="sourcePoint"/>
                        <mxPoint x="419" y="1690.0000000000002" as="targetPoint"/>
                    </mxGeometry>
                </mxCell>
                <mxCell id="94" value="&amp;lt;新增成功/失敗通知&amp;gt;" style="edgeLabel;html=1;align=center;verticalAlign=middle;resizable=0;points=[];" parent="93" vertex="1" connectable="0">
                    <mxGeometry x="0.1444" y="-2" relative="1" as="geometry">
                        <mxPoint x="18" y="-12" as="offset"/>
                    </mxGeometry>
                </mxCell>
                <mxCell id="98" value="" style="endArrow=open;html=1;endFill=0;entryX=0.089;entryY=0.188;entryDx=0;entryDy=0;entryPerimeter=0;" parent="1" edge="1">
                    <mxGeometry width="50" height="50" relative="1" as="geometry">
                        <mxPoint x="419" y="1921.2000000000003" as="sourcePoint"/>
                        <mxPoint x="590.835" y="1920.0000000000002" as="targetPoint"/>
                        <Array as="points">
                            <mxPoint x="540" y="1921.2"/>
                        </Array>
                    </mxGeometry>
                </mxCell>
                <mxCell id="99" value="&amp;lt;修改購物車&amp;gt;" style="edgeLabel;html=1;align=center;verticalAlign=middle;resizable=0;points=[];" parent="98" vertex="1" connectable="0">
                    <mxGeometry x="0.4975" relative="1" as="geometry">
                        <mxPoint x="-45" y="-10" as="offset"/>
                    </mxGeometry>
                </mxCell>
                <mxCell id="100" value="" style="endArrow=classic;dashed=1;html=1;dashPattern=1 3;strokeWidth=1;jumpSize=6;endFill=0;" parent="1" edge="1">
                    <mxGeometry width="50" height="50" relative="1" as="geometry">
                        <mxPoint x="589" y="1990" as="sourcePoint"/>
                        <mxPoint x="419" y="1990" as="targetPoint"/>
                    </mxGeometry>
                </mxCell>
                <mxCell id="101" value="&amp;lt;修改成功/失敗通知&amp;gt;" style="edgeLabel;html=1;align=center;verticalAlign=middle;resizable=0;points=[];" parent="100" vertex="1" connectable="0">
                    <mxGeometry x="0.1444" y="-2" relative="1" as="geometry">
                        <mxPoint x="18" y="-12" as="offset"/>
                    </mxGeometry>
                </mxCell>
                <mxCell id="102" value="" style="rounded=0;whiteSpace=wrap;html=1;fontSize=29;fillColor=#1ba1e2;fontColor=#ffffff;strokeColor=#006EAF;" parent="1" vertex="1">
                    <mxGeometry x="590" y="1910" width="15" height="100" as="geometry"/>
                </mxCell>
                <mxCell id="105" value="" style="endArrow=open;html=1;endFill=0;entryX=0.089;entryY=0.188;entryDx=0;entryDy=0;entryPerimeter=0;" parent="1" edge="1">
                    <mxGeometry width="50" height="50" relative="1" as="geometry">
                        <mxPoint x="419" y="1431.2" as="sourcePoint"/>
                        <mxPoint x="590.835" y="1430" as="targetPoint"/>
                        <Array as="points">
                            <mxPoint x="540" y="1431.2"/>
                        </Array>
                    </mxGeometry>
                </mxCell>
                <mxCell id="106" value="&amp;lt;刪除訂單&amp;gt;" style="edgeLabel;html=1;align=center;verticalAlign=middle;resizable=0;points=[];" parent="105" vertex="1" connectable="0">
                    <mxGeometry x="0.4975" relative="1" as="geometry">
                        <mxPoint x="-45" y="-10" as="offset"/>
                    </mxGeometry>
                </mxCell>
                <mxCell id="107" value="" style="endArrow=none;dashed=1;html=1;startArrow=none;" parent="1" source="119" target="95" edge="1">
                    <mxGeometry width="50" height="50" relative="1" as="geometry">
                        <mxPoint x="600" y="2330" as="sourcePoint"/>
                        <mxPoint x="597.6453488372092" y="1340" as="targetPoint"/>
                        <Array as="points"/>
                    </mxGeometry>
                </mxCell>
                <mxCell id="95" value="" style="rounded=0;whiteSpace=wrap;html=1;fontSize=29;fillColor=#1ba1e2;fontColor=#ffffff;strokeColor=#006EAF;" parent="1" vertex="1">
                    <mxGeometry x="590" y="1610" width="15" height="100" as="geometry"/>
                </mxCell>
                <mxCell id="108" value="" style="endArrow=classic;dashed=1;html=1;dashPattern=1 3;strokeWidth=1;jumpSize=6;endFill=0;" parent="1" edge="1">
                    <mxGeometry width="50" height="50" relative="1" as="geometry">
                        <mxPoint x="590" y="1500" as="sourcePoint"/>
                        <mxPoint x="420" y="1500" as="targetPoint"/>
                    </mxGeometry>
                </mxCell>
                <mxCell id="109" value="&amp;lt;刪除成功/失敗通知&amp;gt;" style="edgeLabel;html=1;align=center;verticalAlign=middle;resizable=0;points=[];" parent="108" vertex="1" connectable="0">
                    <mxGeometry x="0.1444" y="-2" relative="1" as="geometry">
                        <mxPoint x="18" y="-12" as="offset"/>
                    </mxGeometry>
                </mxCell>
                <mxCell id="113" value="" style="endArrow=none;dashed=1;html=1;startArrow=none;" parent="1" source="95" target="112" edge="1">
                    <mxGeometry width="50" height="50" relative="1" as="geometry">
                        <mxPoint x="597.5" y="1610" as="sourcePoint"/>
                        <mxPoint x="597.5" y="1340" as="targetPoint"/>
                        <Array as="points"/>
                    </mxGeometry>
                </mxCell>
                <mxCell id="112" value="" style="rounded=0;whiteSpace=wrap;html=1;fontSize=29;fillColor=#1ba1e2;fontColor=#ffffff;strokeColor=#006EAF;" parent="1" vertex="1">
                    <mxGeometry x="590" y="1410" width="15" height="100" as="geometry"/>
                </mxCell>
                <mxCell id="114" value="" style="endArrow=open;html=1;endFill=0;entryX=-0.267;entryY=0.12;entryDx=0;entryDy=0;entryPerimeter=0;" parent="1" target="119" edge="1">
                    <mxGeometry width="50" height="50" relative="1" as="geometry">
                        <mxPoint x="425.67" y="2091.2000000000003" as="sourcePoint"/>
                        <mxPoint x="580" y="2090" as="targetPoint"/>
                        <Array as="points">
                            <mxPoint x="546.67" y="2091.2"/>
                        </Array>
                    </mxGeometry>
                </mxCell>
                <mxCell id="115" value="&amp;lt;刪除購物車&amp;gt;" style="edgeLabel;html=1;align=center;verticalAlign=middle;resizable=0;points=[];" parent="114" vertex="1" connectable="0">
                    <mxGeometry x="0.4975" relative="1" as="geometry">
                        <mxPoint x="-45" y="-10" as="offset"/>
                    </mxGeometry>
                </mxCell>
                <mxCell id="116" value="" style="endArrow=classic;dashed=1;html=1;dashPattern=1 3;strokeWidth=1;jumpSize=6;endFill=0;" parent="1" edge="1">
                    <mxGeometry width="50" height="50" relative="1" as="geometry">
                        <mxPoint x="597.5" y="2170" as="sourcePoint"/>
                        <mxPoint x="420" y="2170" as="targetPoint"/>
                    </mxGeometry>
                </mxCell>
                <mxCell id="117" value="&amp;lt;刪除成功/失敗通知&amp;gt;" style="edgeLabel;html=1;align=center;verticalAlign=middle;resizable=0;points=[];" parent="116" vertex="1" connectable="0">
                    <mxGeometry x="0.1444" y="-2" relative="1" as="geometry">
                        <mxPoint x="18" y="-12" as="offset"/>
                    </mxGeometry>
                </mxCell>
                <mxCell id="120" value="" style="endArrow=none;dashed=1;html=1;startArrow=none;" parent="1" target="119" edge="1">
                    <mxGeometry width="50" height="50" relative="1" as="geometry">
                        <mxPoint x="598" y="3000" as="sourcePoint"/>
                        <mxPoint x="597.686567164179" y="1710" as="targetPoint"/>
                        <Array as="points"/>
                    </mxGeometry>
                </mxCell>
                <mxCell id="119" value="" style="rounded=0;whiteSpace=wrap;html=1;fontSize=29;fillColor=#1ba1e2;fontColor=#ffffff;strokeColor=#006EAF;" parent="1" vertex="1">
                    <mxGeometry x="590" y="2080" width="15" height="100" as="geometry"/>
                </mxCell>
                <mxCell id="121" value="" style="endArrow=open;html=1;endFill=0;entryX=0.089;entryY=0.188;entryDx=0;entryDy=0;entryPerimeter=0;" parent="1" edge="1">
                    <mxGeometry width="50" height="50" relative="1" as="geometry">
                        <mxPoint x="418.17" y="2281.2000000000003" as="sourcePoint"/>
                        <mxPoint x="590.005" y="2280" as="targetPoint"/>
                        <Array as="points">
                            <mxPoint x="539.17" y="2281.2"/>
                        </Array>
                    </mxGeometry>
                </mxCell>
                <mxCell id="122" value="&amp;lt;新增付款方式&amp;gt;" style="edgeLabel;html=1;align=center;verticalAlign=middle;resizable=0;points=[];" parent="121" vertex="1" connectable="0">
                    <mxGeometry x="0.4975" relative="1" as="geometry">
                        <mxPoint x="-45" y="-10" as="offset"/>
                    </mxGeometry>
                </mxCell>
                <mxCell id="123" value="" style="endArrow=classic;dashed=1;html=1;dashPattern=1 3;strokeWidth=1;jumpSize=6;endFill=0;" parent="1" edge="1">
                    <mxGeometry width="50" height="50" relative="1" as="geometry">
                        <mxPoint x="589" y="2360" as="sourcePoint"/>
                        <mxPoint x="419" y="2360" as="targetPoint"/>
                    </mxGeometry>
                </mxCell>
                <mxCell id="124" value="&amp;lt;新增成功/失敗通知&amp;gt;" style="edgeLabel;html=1;align=center;verticalAlign=middle;resizable=0;points=[];" parent="123" vertex="1" connectable="0">
                    <mxGeometry x="0.1444" y="-2" relative="1" as="geometry">
                        <mxPoint x="18" y="-12" as="offset"/>
                    </mxGeometry>
                </mxCell>
                <mxCell id="125" value="" style="rounded=0;whiteSpace=wrap;html=1;fontSize=29;fillColor=#1ba1e2;fontColor=#ffffff;strokeColor=#006EAF;" parent="1" vertex="1">
                    <mxGeometry x="590" y="2270" width="15" height="100" as="geometry"/>
                </mxCell>
                <mxCell id="134" value="" style="endArrow=open;html=1;endFill=0;entryX=0.089;entryY=0.188;entryDx=0;entryDy=0;entryPerimeter=0;" parent="1" edge="1">
                    <mxGeometry width="50" height="50" relative="1" as="geometry">
                        <mxPoint x="418.1600000000001" y="2681.2000000000003" as="sourcePoint"/>
                        <mxPoint x="589.9950000000001" y="2680" as="targetPoint"/>
                        <Array as="points">
                            <mxPoint x="539.16" y="2681.2"/>
                        </Array>
                    </mxGeometry>
                </mxCell>
                <mxCell id="135" value="&amp;lt;修改付款方式&amp;gt;" style="edgeLabel;html=1;align=center;verticalAlign=middle;resizable=0;points=[];" parent="134" vertex="1" connectable="0">
                    <mxGeometry x="0.4975" relative="1" as="geometry">
                        <mxPoint x="-45" y="-10" as="offset"/>
                    </mxGeometry>
                </mxCell>
                <mxCell id="136" value="" style="endArrow=classic;dashed=1;html=1;dashPattern=1 3;strokeWidth=1;jumpSize=6;endFill=0;" parent="1" edge="1">
                    <mxGeometry width="50" height="50" relative="1" as="geometry">
                        <mxPoint x="589" y="2760" as="sourcePoint"/>
                        <mxPoint x="419" y="2760" as="targetPoint"/>
                    </mxGeometry>
                </mxCell>
                <mxCell id="137" value="&amp;lt;修改成功/失敗通知&amp;gt;" style="edgeLabel;html=1;align=center;verticalAlign=middle;resizable=0;points=[];" parent="136" vertex="1" connectable="0">
                    <mxGeometry x="0.1444" y="-2" relative="1" as="geometry">
                        <mxPoint x="18" y="-12" as="offset"/>
                    </mxGeometry>
                </mxCell>
                <mxCell id="139" value="" style="endArrow=open;html=1;endFill=0;entryX=-0.192;entryY=0.175;entryDx=0;entryDy=0;entryPerimeter=0;" parent="1" target="144" edge="1">
                    <mxGeometry width="50" height="50" relative="1" as="geometry">
                        <mxPoint x="419.00000000000006" y="2841.2000000000003" as="sourcePoint"/>
                        <mxPoint x="580" y="2840" as="targetPoint"/>
                        <Array as="points">
                            <mxPoint x="540" y="2841.2"/>
                        </Array>
                    </mxGeometry>
                </mxCell>
                <mxCell id="140" value="&amp;lt;刪除付款方式&amp;gt;" style="edgeLabel;html=1;align=center;verticalAlign=middle;resizable=0;points=[];" parent="139" vertex="1" connectable="0">
                    <mxGeometry x="0.4975" relative="1" as="geometry">
                        <mxPoint x="-45" y="-10" as="offset"/>
                    </mxGeometry>
                </mxCell>
                <mxCell id="141" value="" style="endArrow=classic;dashed=1;html=1;dashPattern=1 3;strokeWidth=1;jumpSize=6;endFill=0;" parent="1" edge="1">
                    <mxGeometry width="50" height="50" relative="1" as="geometry">
                        <mxPoint x="589" y="2900" as="sourcePoint"/>
                        <mxPoint x="419" y="2900" as="targetPoint"/>
                    </mxGeometry>
                </mxCell>
                <mxCell id="142" value="&amp;lt;刪除成功/失敗通知&amp;gt;" style="edgeLabel;html=1;align=center;verticalAlign=middle;resizable=0;points=[];" parent="141" vertex="1" connectable="0">
                    <mxGeometry x="0.1444" y="-2" relative="1" as="geometry">
                        <mxPoint x="18" y="-12" as="offset"/>
                    </mxGeometry>
                </mxCell>
                <mxCell id="143" value="" style="rounded=0;whiteSpace=wrap;html=1;fontSize=29;fillColor=#1ba1e2;fontColor=#ffffff;strokeColor=#006EAF;" parent="1" vertex="1">
                    <mxGeometry x="590" y="2670" width="15" height="100" as="geometry"/>
                </mxCell>
                <mxCell id="144" value="" style="rounded=0;whiteSpace=wrap;html=1;fontSize=29;fillColor=#1ba1e2;fontColor=#ffffff;strokeColor=#006EAF;" parent="1" vertex="1">
                    <mxGeometry x="590" y="2823" width="15" height="100" as="geometry"/>
                </mxCell>
            </root>
        </mxGraphModel>
    </diagram>
</mxfile>